<svg id="visual" viewBox="0 0 900 600" width="900" height="600" xmlns="http://www.w3.org/2000/svg" xmlns:xlink="http://www.w3.org/1999/xlink" version="1.1"><rect x="0" y="0" width="900" height="600" fill="#0f172a"></rect><path d="M0 388L21.5 394.8C43 401.7 86 415.3 128.8 436.5C171.7 457.7 214.3 486.3 257.2 496C300 505.7 343 496.3 385.8 476.5C428.7 456.7 471.3 426.3 514.2 408.3C557 390.3 600 384.7 642.8 401.3C685.7 418 728.3 457 771.2 471.7C814 486.3 857 476.7 878.5 471.8L900 467L900 601L878.5 601C857 601 814 601 771.2 601C728.3 601 685.7 601 642.8 601C600 601 557 601 514.2 601C471.3 601 428.7 601 385.8 601C343 601 300 601 257.2 601C214.3 601 171.7 601 128.8 601C86 601 43 601 21.5 601L0 601Z" fill="#0066FF" stroke-linecap="round" stroke-linejoin="miter"></path></svg>